<svg xmlns="http://www.w3.org/2000/svg" xmlns:xlink="http://www.w3.org/1999/xlink" width="42" height="49" viewBox="0 0 42 49">
    <defs>
        <path id="a" d="M0 49.853h40.89V0H0z"/>
    </defs>
    <g fill="none" fill-rule="evenodd" transform="matrix(1 0 0 -1 .693 49.178)">
        <mask id="b" fill="#fff">
            <use xlink:href="#a"/>
        </mask>
        <g mask="url(#b)">
            <path fill="#543224" fill-rule="nonzero" d="M30.875.876c-.783 0-1.6.272-2.427.81l-7.972 5.178-7.97-5.178c-.829-.537-1.645-.81-2.427-.81-1.098 0-2.076.538-2.755 1.516-.554.8-1.147 2.24-.826 4.567l1.51 10.949-6.407 7.553C.248 27.055-.264 28.982.196 30.75c.46 1.767 1.79 2.983 3.648 3.335l8.927 1.693 3.99 9.719c.84 2.047 2.194 3.222 3.715 3.222 1.522 0 2.876-1.174 3.717-3.222l3.99-9.719 8.926-1.693c1.859-.352 3.188-1.568 3.648-3.335.46-1.768-.052-3.695-1.404-5.29l-6.408-7.552 1.51-10.949c.321-2.327-.272-3.768-.826-4.567-.678-.977-1.657-1.516-2.754-1.516"/>
            <path fill="#FFCE00" fill-rule="nonzero" d="M22.13 44.238L26.65 33.22l10.104-1.916c2.015-.383 2.46-2.093.994-3.822l-7.281-8.581 1.712-12.41c.338-2.451-.847-3.492-2.647-2.322l-9.057 5.882L11.42 4.17C9.62 3 8.435 4.04 8.774 6.493l1.712 12.409-7.281 8.581c-1.467 1.729-1.022 3.44.993 3.822l10.104 1.916 4.522 11.016c.913 2.224 2.393 2.224 3.305 0"/>
            <path fill="#FFDD15" fill-rule="nonzero" d="M30.468 18.902l1.711-12.41"/>
            <path fill="#CC8A1F" fill-rule="nonzero" d="M28.981 19.498l6.378 7.518c-10.096 1.058-18.81-1.362-25.7-4.792l2.313-2.726-1.833-13.286c-.061-.446.299-.768.63-.552l9.708 6.304 9.707-6.304c.331-.216.691.106.63.552L28.98 19.498z"/>
            <path fill="#F4AD21" fill-rule="nonzero" d="M9.66 22.224l2.312-2.726-.637-4.615c4.214 2.257 11.068 4.69 18.49 5.61l5.534 6.523c-10.096 1.058-18.81-1.362-25.7-4.792"/>
            <path fill="#FFF100" fill-rule="nonzero" d="M9.66 22.224c6.888 3.43 15.603 5.85 25.7 4.792l1.426 1.681c.28.33.141.867-.244.94l-10.81 2.05-.559 1.363c-6.694-.75-12.48-3.086-18.922-6.81l3.408-4.016zM11.223 5.591c0-.66-.472-1.196-1.053-1.196-.582 0-1.053.536-1.053 1.196 0 .66.471 1.196 1.053 1.196.581 0 1.053-.535 1.053-1.196"/>
            <path fill="#FFF" fill-rule="nonzero" d="M20.19 44.56c-.492 0-3.457-8.21-5.04-11.096-.062.01-.126.018-.191.018-.675 0-1.23-.585-1.294-1.333-2.22-.754-7.509-1.478-9.995-2.103.038-.974 7.507-.053 10.5.787.219-.191.492-.305.789-.305.718 0 1.3.66 1.3 1.477 0 .2-.035.39-.098.564 1.817 3.434 4.794 12.068 4.028 11.991"/>
        </g>
    </g>
</svg>
